PathFileType	4	(X/Y/Z)	/home/utkubuntu/opensim/opensim_mycode/release_code/bioimitation/imitation_envs/data/02905/02905_PRE/experimental_data/task.trc
DataRate	CameraRate	NumFrames	NumMarkers	Units	OrigDataRate	OrigDataStartFrame	OrigNumFrames
100.000000	100.000000	4	43	mm	100.000000	239	478
Frame#	Time	C7			CLAV			LANK			LASI			LBHD			LELB			LFHD			LFIN			LHEE			LKNE			LMED			LMET			LMIF			LPSI			LSHO			LTHI			LTIB			LTOE			LTTU			LWRA			LWRB			RANK			RASI			RBAK			RBHD			RELB			RFHD			RFIN			RHEE			RKNE			RMED			RMET			RMIF			RPSI			RSHO			RTHI			RTIB			RTOE			RTTU			RWRA			RWRB			STRN			T10			
		X1	Y1	Z1	X2	Y2	Z2	X3	Y3	Z3	X4	Y4	Z4	X5	Y5	Z5	X6	Y6	Z6	X7	Y7	Z7	X8	Y8	Z8	X9	Y9	Z9	X10	Y10	Z10	X11	Y11	Z11	X12	Y12	Z12	X13	Y13	Z13	X14	Y14	Z14	X15	Y15	Z15	X16	Y16	Z16	X17	Y17	Z17	X18	Y18	Z18	X19	Y19	Z19	X20	Y20	Z20	X21	Y21	Z21	X22	Y22	Z22	X23	Y23	Z23	X24	Y24	Z24	X25	Y25	Z25	X26	Y26	Z26	X27	Y27	Z27	X28	Y28	Z28	X29	Y29	Z29	X30	Y30	Z30	X31	Y31	Z31	X32	Y32	Z32	X33	Y33	Z33	X34	Y34	Z34	X35	Y35	Z35	X36	Y36	Z36	X37	Y37	Z37	X38	Y38	Z38	X39	Y39	Z39	X40	Y40	Z40	X41	Y41	Z41	X42	Y42	Z42	X43	Y43	Z43	

240	2.39	540.2069702148438	1233.625	263.8349914550778	649.2529907226562	1159.368041992188	268.1839904785153	241.5189971923828	129.8800048828125	178.6809997558593	611.0349731445312	819.489990234375	138.8730010986326	547.1900024414062	1368.2900390625	212.7660064697262	650.8510131835938	980.8800048828125	16.5629997253415	689.3400268554688	1387.942993164062	212.0579986572262	871.6069946289062	848.4710083007812	1.585000038146678	198.3170013427735	123.8710021972657	231.5509948730468	458.5710144042969	441.1229858398438	140.7070007324217	275.3789978027344	122.1520004272462	243.6719970703124	279.1799926757812	45.59199905395511	145.7059936523437	307.4259948730469	99.40299987792973	190.7910003662109	482.7049865722656	848.6170043945312	225.7400054931638	586.9970092773438	1211.56494140625	128.8930053710934	471.8529968261719	500.9630126953125	95.10099792480452	333.4930114746094	277.0400085449219	111.5230026245116	320.2260131835938	48.17399978637699	165.4160003662109	467.2430114746094	333.9920043945313	191.4160003662108	829.43798828125	886.416015625	41.96699905395478	806.39501953125	839.958984375	2.543999910354329	757.3709716796875	63.17699813842781	345.1960144042968	647.7949829101562	827.1779785156251	358.783996582031	484.6019897460938	1111.328979492188	336.3380126953122	536.7249755859375	1338.81201171875	348.9289855957028	487.4270019531251	931.1270141601564	456.2539978027341	691.8410034179688	1374.057983398438	349.2709960937497	473.8659973144532	671.1090087890626	483.0910034179685	723.4559936523438	30.8899993896485	289.8519897460936	708.801025390625	439.3340148925782	377.1570129394529	792.8829956054688	69.45099639892584	277.5369873046874	842.0380249023438	29.66799926757821	374.532989501953	824.8289794921875	83.55899810791023	329.0020141601561	499.5050048828126	850.3649902343751	318.5799865722654	561.3880004882812	1200.545043945312	388.7359924316403	697.1849975585938	521.7319946289064	427.773010253906	713.1199951171875	257.7420043945314	413.7219848632811	870.72900390625	49.00400161743172	350.542999267578	776.3060302734375	371.1099853515626	328.584014892578	502.6199951171876	709.6350097656251	450.565002441406	437.4590148925782	718.5200195312501	471.1910095214841	678.0009765625	1037.723999023438	258.4809875488278	497.1969909667969	961.0269775390626	265.0910034179685	
241	2.4	552.1270141601562	1233.887939453125	266.0400085449215	661.3590087890625	1159.97900390625	270.8030090332028	248.3090057373047	135.5549926757813	178.6199951171874	623.9080200195312	819.052978515625	140.8999938964841	558.3989868164062	1368.536010742188	216.0440063476559	660.7990112304688	980.3900146484375	19.01899909973115	700.469970703125	1388.866943359375	215.2720031738277	882.0120239257812	849.6229858398438	5.234000205993356	206.6170043945313	131.884994506836	232.6640014648437	473.6640014648438	440.2829895019532	140.6029968261717	283.1730041503907	126.2720031738282	242.6580047607421	281.0350036621094	48.19499969482425	146.1159973144531	312.9710083007812	101.3720016479493	189.4259948730468	495.2780151367188	848.6900024414062	226.731994628906	600.0850219726562	1212.036010742188	130.9869995117184	485.9450073242188	500.510009765625	95.84999847412092	343.864990234375	280.3989868164062	111.3649978637694	321.9450073242188	48.57699966430668	165.2630004882812	480.9079895019531	332.2749938964844	189.9160003662108	839.2369995117188	887.4229736328125	45.13800048828095	816.8319702148438	840.4639892578125	5.988999843597125	760.31298828125	63.72499847412117	344.9270019531249	659.9810180664062	828.6320190429689	360.5499877929685	496.4370117187501	1111.280029296875	337.8970031738278	547.9849853515625	1338.9150390625	352.2499999999997	498.6300048828126	930.9769897460939	458.5910034179685	703.0009765625	1374.906982421875	352.3840026855465	485.3550109863282	671.1389770507814	486.429992675781	724.5780029296875	31.7919998168946	290.2630004882811	721.6589965820312	441.2070007324219	377.7399902343748	794.7490234375	68.59500122070318	276.4349975585936	843.0449829101562	29.55299949646004	374.6969909667968	827.7479858398438	82.12400054931648	327.5090026855468	511.7170104980469	851.4110107421876	319.7799987792966	573.0650024414062	1200.358032226562	390.9660034179684	710.2780151367188	524.0200195312501	428.3070068359373	725.5599975585938	259.6799926757814	415.3179931640623	872.8599853515625	47.34999847412117	349.595001220703	786.552001953125	371.5750122070313	327.2879943847655	514.3709716796875	709.4799804687501	453.8489990234373	448.9949951171876	718.2579956054689	473.4849853515623	690.5599975585938	1038.359985351562	260.971984863281	509.5180053710938	961.5419921875001	265.6919860839841	
242	2.41	563.885986328125	1234.141967773438	268.0610046386715	673.3829956054688	1160.713989257812	273.3210144042965	256.3330078125	141.4149932861328	178.6210021972656	636.6680297851562	818.7150268554688	143.1519927978513	569.6309814453125	1368.849975585938	219.2550048828121	670.4190063476562	979.9390258789062	21.58300018310517	711.6309814453125	1389.800048828125	218.3749999999996	891.7100219726562	850.010009765625	8.836000442504586	216.7039947509766	140.3150024414063	234.1410064697265	489.8949890136719	439.1990051269532	140.199005126953	292.4179992675782	130.3450012207032	241.490005493164	283.2980041503906	51.21300125122074	146.6320037841797	319.4119873046875	103.2720031738282	187.906997680664	507.6759948730469	848.844970703125	227.5939941406247	613.1719970703125	1212.623046875	133.0500030517575	501.2489929199219	499.8009948730469	96.26300048828108	355.3099975585938	284.0079956054688	111.172996520996	323.927001953125	49.04600143432621	165.1320037841797	495.781005859375	330.4179992675782	187.8679962158202	848.5280151367188	887.8839721679688	48.27799987792938	826.5280151367188	840.4559936523438	9.489000320434283	762.6010131835938	64.20099639892585	344.4790039062499	671.9409790039062	830.3880004882814	362.5950012207029	508.1709899902344	1111.39404296875	339.283996582031	559.2979736328125	1339.072021484375	355.5060119628903	510.1300048828126	930.9899902343751	460.8479919433591	714.2379760742188	1375.7509765625	355.389007568359	497.2470092773438	671.3469848632814	489.8089904785154	725.3709716796875	32.38700103759772	290.470001220703	734.3060302734375	442.9349975585938	378.0700073242185	795.9749755859375	67.80500030517584	275.2749938964843	843.6729736328125	29.71999931335457	374.7019958496093	829.8839721679688	80.91500091552741	325.9609985351561	523.7009887695312	852.5770263671876	320.7260131835935	584.4929809570312	1200.33203125	392.9819946289059	723.60400390625	526.5159912109376	429.0530090332029	738.5960083007812	261.300994873047	416.9039916992186	874.3660278320312	46.18999862670906	348.595001220703	796.177001953125	371.7909851074219	325.3670043945311	526.614013671875	709.5369873046876	457.1820068359373	460.9339904785157	718.0739746093751	475.9360046386716	703.0070190429688	1039.067993164062	263.4469909667965	521.698974609375	962.2039794921876	266.2179870605466	
243	2.42	575.4849853515625	1234.392944335938	269.8940124511715	685.2999877929688	1161.5009765625	275.7130126953122	265.7579956054688	147.3339996337891	178.5729980468749	649.22998046875	818.448974609375	145.5599975585935	580.8740234375	1369.180053710938	222.3289947509762	679.698974609375	979.5	24.19899940490693	722.8079833984375	1390.697998046875	221.3359985351559	900.7459716796875	849.6060180664062	12.39099979400605	228.4949951171875	149.0290069580079	235.7030029296874	507.1010131835938	437.8770141601563	139.5679931640624	303.1010131835938	134.2790069580079	240.2019958496093	286.14599609375	54.74900054931644	147.2760009765625	326.8290100097656	105.1309967041016	186.3300018310546	519.822998046875	849.0590209960938	228.4219970703122	626.0819702148438	1213.255981445312	135.0570068359372	517.718994140625	498.7669982910156	96.31400299072249	367.85400390625	287.7839965820312	110.9970016479491	326.2969970703125	49.74200057983402	165.0500030517578	511.7120056152344	328.4989929199219	185.3619995117186	857.3569946289062	887.7730102539062	51.3849983215329	835.5260009765625	839.9140014648438	13.04199981689424	764.4019775390625	64.51399993896491	343.938995361328	683.6690063476562	832.2520141601564	364.8529968261716	519.7689819335938	1111.558959960938	340.5119934082028	570.7360229492188	1339.157958984375	358.5629882812497	521.8939819335938	931.1459960937501	463.0060119628903	725.531005859375	1376.473999023438	358.2669982910152	509.5929870605469	671.7009887695314	493.221008300781	725.9190063476562	32.75999832153327	290.5270080566405	746.3270263671875	444.1579895019532	378.221008300781	796.781005859375	67.02500152587896	274.178009033203	844.0679931640625	29.92900085449227	374.5790100097655	831.4849853515625	79.87699890136726	324.511993408203	535.4619750976562	853.7189941406251	321.5830078124998	595.5020141601562	1200.442993164062	394.7460021972653	737.1099853515625	528.5670166015626	429.7929992675779	750.9080200195312	262.1740112304689	418.0069885253905	875.4420166015625	45.35200119018563	347.6830139160155	804.9949951171875	371.5209960937501	323.157989501953	539.3359985351562	709.7849731445314	460.565002441406	473.3420104980469	717.9890136718751	478.5849914550779	715.2890014648438	1039.779052734375	265.8489990234372	533.7230224609375	962.8920288085939	266.8240051269528	
